<svg width="8" height="13" viewBox="0 0 8 13" fill="none" xmlns="http://www.w3.org/2000/svg">
<path d="M6.77079 10.3208L2.41079 6.00079L6.70079 1.71079C6.79452 1.61783 6.86892 1.50723 6.91968 1.38537C6.97045 1.26351 6.99659 1.1328 6.99659 1.00079C6.99659 0.868781 6.97045 0.738075 6.91968 0.616216C6.86892 0.494356 6.79452 0.383755 6.70079 0.290792C6.51343 0.104542 6.25998 0 5.99579 0C5.73161 0 5.47816 0.104542 5.29079 0.290792L0.290793 5.29079C0.104542 5.47816 0 5.73161 0 5.99579C0 6.25998 0.104542 6.51343 0.290793 6.70079L5.36079 11.7708C5.54705 11.9555 5.79845 12.0597 6.06079 12.0608C6.1924 12.0616 6.32286 12.0363 6.4447 11.9866C6.56654 11.9368 6.67735 11.8635 6.77079 11.7708C6.86913 11.6774 6.94743 11.5649 7.00094 11.4403C7.05445 11.3156 7.08204 11.1814 7.08204 11.0458C7.08204 10.9102 7.05445 10.7759 7.00094 10.6513C6.94743 10.5267 6.86913 10.4142 6.77079 10.3208Z" fill="currentColor"/>
</svg>
