<svg xmlns="http://www.w3.org/2000/svg" width="24" height="24" viewBox="0 0 24 24" fill="none">
<path d="M12 2C10.2954 2 8.61916 2.43572 7.13036 3.26578C5.64155 4.09585 4.38964 5.2927 3.49349 6.74269C2.59735 8.19268 2.08673 9.84767 2.01011 11.5505C1.93349 13.2534 2.29342 14.9475 3.05573 16.4721C3.81803 17.9967 4.95741 19.3012 6.36565 20.2616C7.7739 21.222 9.40427 21.8065 11.1019 21.9596C12.7996 22.1127 14.5083 21.8293 16.0656 21.1362C17.6229 20.4432 18.9773 19.3637 20 18C21.1143 16.5143 21.7928 14.7477 21.9596 12.8981C22.1264 11.0484 21.7748 9.18892 20.9443 7.52786C20.1137 5.86681 18.8371 4.46984 17.2573 3.49349C15.6776 2.51715 13.8571 2 12 2ZM18.83 16.13C16.6369 15.3568 14.3252 14.9743 12 15C9.67477 14.9743 7.36306 15.3568 5.17 16.13C4.40726 14.8873 4.00239 13.4581 4 12C3.99454 10.7633 4.27587 9.54217 4.8219 8.43253C5.36793 7.32289 6.16378 6.35495 7.14696 5.60473C8.13013 4.85452 9.27385 4.34246 10.4883 4.10878C11.7027 3.87509 12.9548 3.92615 14.1462 4.25794C15.3375 4.58972 16.4358 5.1932 17.3546 6.02097C18.2734 6.84875 18.9878 7.87827 19.4417 9.02869C19.8956 10.1791 20.0765 11.4191 19.9704 12.6512C19.8643 13.8834 19.4739 15.0741 18.83 16.13Z" fill="#153B5E"/>
<path d="M12 6C12.7911 6 13.5645 6.2346 14.2223 6.67412C14.8801 7.11365 15.3928 7.73836 15.6955 8.46927C15.9983 9.20017 16.0775 10.0044 15.9231 10.7804C15.7688 11.5563 15.3878 12.269 14.8284 12.8284C14.269 13.3878 13.5563 13.7688 12.7804 13.9231C12.0044 14.0775 11.2002 13.9983 10.4693 13.6955C9.73836 13.3928 9.11365 12.8801 8.67412 12.2223C8.2346 11.5645 8 10.7911 8 10C8 8.93913 8.42143 7.92172 9.17157 7.17157C9.92172 6.42143 10.9391 6 12 6Z" fill="#153B5E"/>
</svg>