<svg style="display: none;" xmlns="http://www.w3.org/2000/svg">
  <!-- Home Icon -->
  <symbol id="icon-home" viewBox="0 0 20 20" fill="currentColor">
    <path d="M10.707 2.293a1 1 0 00-1.414 0l-7 7a1 1 0 001.414 1.414L4 10.414V17a1 1 0 001 1h2a1 1 0 001-1v-2a1 1 0 011-1h2a1 1 0 011 1v2a1 1 0 001 1h2a1 1 0 001-1v-6.586l.293.293a1 1 0 001.414-1.414l-7-7z"/>
  </symbol>

  <!-- Document/Claims Icon -->
  <symbol id="icon-document" viewBox="0 0 20 20" fill="currentColor">
    <path fill-rule="evenodd" d="M4 4a2 2 0 012-2h4.586A2 2 0 0112 2.586L15.414 6A2 2 0 0116 7.414V16a2 2 0 01-2 2H6a2 2 0 01-2-2V4zm2 6a1 1 0 011-1h6a1 1 0 110 2H7a1 1 0 01-1-1zm1 3a1 1 0 100 2h6a1 1 0 100-2H7z" clip-rule="evenodd"/>
  </symbol>

  <!-- Accounts/Building Icon -->
  <symbol id="icon-accounts" viewBox="0 0 20 20" fill="currentColor">
    <path d="M3 4a1 1 0 011-1h12a1 1 0 011 1v2a1 1 0 01-1 1H4a1 1 0 01-1-1V4zM3 10a1 1 0 011-1h6a1 1 0 011 1v6a1 1 0 01-1 1H4a1 1 0 01-1-1v-6zM14 9a1 1 0 00-1 1v6a1 1 0 001 1h2a1 1 0 001-1v-6a1 1 0 00-1-1h-2z"/>
  </symbol>

  <!-- Performance/Chart Icon -->
  <symbol id="icon-performance" viewBox="0 0 20 20" fill="currentColor">
    <path d="M2 11a1 1 0 011-1h2a1 1 0 011 1v5a1 1 0 01-1 1H3a1 1 0 01-1-1v-5zM8 7a1 1 0 011-1h2a1 1 0 011 1v9a1 1 0 01-1 1H9a1 1 0 01-1-1V7zM14 4a1 1 0 011-1h2a1 1 0 011 1v12a1 1 0 01-1 1h-2a1 1 0 01-1-1V4z"/>
  </symbol>

  <!-- Feedback/Chat Icon -->
  <symbol id="icon-feedback" viewBox="0 0 20 20" fill="currentColor">
    <path fill-rule="evenodd" d="M18 10c0 3.866-3.582 7-8 7a8.841 8.841 0 01-4.083-.98L2 17l1.338-3.123C2.493 12.767 2 11.434 2 10c0-3.866 3.582-7 8-7s8 3.134 8 7zM7 9H5v2h2V9zm8 0h-2v2h2V9zM9 9h2v2H9V9z" clip-rule="evenodd"/>
  </symbol>

  <!-- Report Issue/Warning Icon -->
  <symbol id="icon-warning" viewBox="0 0 20 20" fill="currentColor">
    <path fill-rule="evenodd" d="M8.257 3.099c.765-1.36 2.722-1.36 3.486 0l5.58 9.92c.75 1.334-.213 2.98-1.742 2.98H4.42c-1.53 0-2.493-1.646-1.743-2.98l5.58-9.92zM11 13a1 1 0 11-2 0 1 1 0 012 0zm-1-8a1 1 0 00-1 1v3a1 1 0 002 0V6a1 1 0 00-1-1z" clip-rule="evenodd"/>
  </symbol>

  <!-- Chevron Down Icon -->
  <symbol id="icon-chevron-down" viewBox="0 0 20 20" fill="currentColor">
    <path fill-rule="evenodd" d="M5.293 7.293a1 1 0 011.414 0L10 10.586l3.293-3.293a1 1 0 111.414 1.414l-4 4a1 1 0 01-1.414 0l-4-4a1 1 0 010-1.414z" clip-rule="evenodd"/>
  </symbol>

  <!-- Chevron Up Icon -->
  <symbol id="icon-chevron-up" viewBox="0 0 20 20" fill="currentColor">
    <path fill-rule="evenodd" d="M14.707 12.707a1 1 0 01-1.414 0L10 9.414l-3.293 3.293a1 1 0 01-1.414-1.414l4-4a1 1 0 011.414 0l4 4a1 1 0 010 1.414z" clip-rule="evenodd"/>
  </symbol>
</svg> 